# xmcd
#
# Track frame offsets:
#	150
#	9975
#	22667
#	33512
#	43780
#	54597
#	64377
#	81082
#	92280
#	104712
#
# Disc length: 1555
#
# Revision: 2
# Processed by: cddbd v1.5.1PL0 Copyright (c) Steve Scherf et al.
# Submitted via: ExactAudioCopy v0.90b4
# Normalized: r1:DSETVAR1
#
DISCID=7406110a
DTITLE=Various Artist - Pancho, Lefty and Rudolph
DYEAR=1995
DGENRE=Country
TTITLE0=Wiillie Nelson - Jingle Bells
TTITLE1=Merle Haggard - Rudolph the Red-Noise Reindeer
TTITLE2=Willie Nelson - Frosty the Snowman
TTITLE3=Merle Haggard - Santa Claus is Comin' to Town
TTITLE4=Willie Nelson - Pretty Paper
TTITLE5=Merle  Haggard - Blue Christmas
TTITLE6=Willie Nelson - Silent Night, Holy Night
TTITLE7=Merle Haggard - Goin' Home for Christmas
TTITLE8=Willie Nelson - White Christmas
TTITLE9=Merle Haggard - If We Make it Through December
EXTD=
EXTT0=
EXTT1=
EXTT2=
EXTT3=
EXTT4=
EXTT5=
EXTT6=
EXTT7=
EXTT8=
EXTT9=
PLAYORDER=
